<svg xmlns="http://www.w3.org/2000/svg" version="1.1" xmlns:xlink="http://www.w3.org/1999/xlink" xmlns:svgjs="http://svgjs.com/svgjs" width="1000" height="1000" viewBox="0 0 390 300"><g><defs></defs><g id="SvgjsG1019"><g id="SvgjsG1020" class="EXI05Vx4g" transform="translate(110.3700519846598, 0) scale(0.5120819515251821)" light-content="false" non-strokable="false" fill="#ef562f"><circle cx="133.8" cy="133.8" r="133.8"></circle></g><g id="SvgjsG1021" class="text" transform="translate(179.86398019388056, 98.15951028189434) scale(1)" light-content="true" fill="#ffffff"><path d="M-13.88 -58.27C-18.51 -58.27 -23.34 -55.95 -28.35 -51.33C-33.37 -46.7 -37.47 -41.22 -40.64 -34.91C-43.81 -28.59 -45.4 -22.96 -45.4 -18.02C-45.4 -14.48 -43.62 -10.76 -40.05 -6.86C-36.49 -2.96 -33.1 -1.01 -29.88 -1.01C-26.65 -1.01 -23.05 -1.87 -19.07 -3.59C-15.09 -5.3 -11.7 -7.37 -8.89 -9.79C-6.08 -12.21 -4.68 -14.3 -4.68 -16.07C-4.68 -16.9 -4.85 -17.62 -5.19 -18.21C-5.53 -18.81 -5.86 -19.11 -6.2 -19.11C-6.54 -19.11 -7.9 -18.55 -10.3 -17.43C-12.69 -16.32 -15.73 -15.21 -19.42 -14.12C-23.11 -13.03 -26.75 -12.48 -30.34 -12.48C-31.7 -12.48 -32.63 -12.86 -33.15 -13.61C-33.67 -14.37 -33.93 -15.57 -33.93 -17.24C-33.93 -20.62 -32.7 -24.62 -30.23 -29.25C-27.76 -33.88 -24.78 -37.86 -21.29 -41.19C-17.81 -44.51 -14.77 -46.18 -12.17 -46.18C-11.44 -46.18 -10.57 -46.07 -9.56 -45.87C-8.54 -45.66 -7.88 -45.55 -7.57 -45.55C-6.89 -45.55 -6.55 -46.39 -6.55 -48.05C-6.55 -49.71 -7.41 -51.83 -9.13 -54.41C-10.84 -56.98 -12.43 -58.27 -13.88 -58.27Z M34.24 -58.27C29.62 -58.27 24.79 -55.95 19.77 -51.33C14.76 -46.7 10.66 -41.22 7.49 -34.91C4.32 -28.59 2.73 -22.96 2.73 -18.02C2.73 -14.48 4.51 -10.76 8.07 -6.86C11.64 -2.96 15.03 -1.01 18.25 -1.01C21.48 -1.01 25.08 -1.87 29.06 -3.59C33.03 -5.3 36.43 -7.37 39.24 -9.79C42.04 -12.21 43.45 -14.3 43.45 -16.07C43.45 -16.9 43.28 -17.62 42.94 -18.21C42.6 -18.81 42.26 -19.11 41.93 -19.11C41.59 -19.11 40.22 -18.55 37.83 -17.43C35.44 -16.32 32.4 -15.21 28.71 -14.12C25.01 -13.03 21.37 -12.48 17.78 -12.48C16.43 -12.48 15.5 -12.86 14.98 -13.61C14.46 -14.37 14.2 -15.57 14.2 -17.24C14.2 -20.62 15.43 -24.62 17.9 -29.25C20.37 -33.88 23.35 -37.86 26.83 -41.19C30.32 -44.51 33.36 -46.18 35.96 -46.18C36.69 -46.18 37.56 -46.07 38.57 -45.87C39.59 -45.66 40.25 -45.55 40.56 -45.55C41.24 -45.55 41.58 -46.39 41.58 -48.05C41.58 -49.71 40.72 -51.83 39 -54.41C37.29 -56.98 35.7 -58.27 34.24 -58.27Z"></path></g><g id="SvgjsG1022" class="text" transform="translate(197.61000061035156, 244.9768672567126) scale(1)" light-content="false" fill="#ef562f"><path d="M-123.83 -83.59C-131.5 -89.75 -141.19 -92.82 -152.89 -92.82C-161.81 -92.82 -169.66 -90.85 -176.42 -86.91C-183.18 -82.96 -188.4 -77.44 -192.08 -70.33C-195.77 -63.23 -197.61 -55.12 -197.61 -46.02C-197.61 -36.92 -195.77 -28.82 -192.08 -21.71C-188.4 -14.6 -183.18 -9.08 -176.42 -5.14C-169.66 -1.19 -161.81 0.78 -152.89 0.78C-141.19 0.78 -131.5 -2.32 -123.83 -8.52C-116.16 -14.71 -111.2 -23.01 -108.94 -33.41L-132.47 -33.41C-134.21 -29.25 -136.87 -25.96 -140.47 -23.53C-144.07 -21.1 -148.34 -19.89 -153.28 -19.89C-159.78 -19.89 -165.02 -22.25 -169.01 -26.98C-172.99 -31.7 -174.99 -38.05 -174.99 -46.02C-174.99 -54 -172.99 -60.37 -169.01 -65.13C-165.02 -69.9 -159.78 -72.28 -153.28 -72.28C-148.34 -72.28 -144.07 -71.07 -140.47 -68.64C-136.87 -66.22 -134.21 -62.88 -132.47 -58.63L-108.94 -58.63C-111.2 -69.12 -116.16 -77.44 -123.83 -83.59Z M-16.19 -87.3C-23.25 -91.33 -31.11 -93.34 -39.78 -93.34C-48.36 -93.34 -56.18 -91.33 -63.25 -87.3C-70.31 -83.27 -75.9 -77.68 -80.02 -70.53C-84.13 -63.38 -86.19 -55.3 -86.19 -46.28C-86.19 -37.27 -84.13 -29.16 -80.02 -21.97C-75.9 -14.78 -70.31 -9.17 -63.25 -5.14C-56.18 -1.11 -48.36 0.91 -39.78 0.91C-31.2 0.91 -23.38 -1.11 -16.32 -5.14C-9.25 -9.17 -3.66 -14.78 0.46 -21.97C4.57 -29.16 6.63 -37.27 6.63 -46.28C6.63 -55.3 4.59 -63.38 0.52 -70.53C-3.55 -77.68 -9.12 -83.27 -16.19 -87.3ZM-57.14 -65.59C-52.85 -70.31 -47.06 -72.67 -39.78 -72.67C-32.5 -72.67 -26.72 -70.29 -22.43 -65.52C-18.14 -60.76 -15.99 -54.34 -15.99 -46.28C-15.99 -38.22 -18.16 -31.81 -22.49 -27.04C-26.82 -22.27 -32.59 -19.89 -39.78 -19.89C-47.06 -19.89 -52.85 -22.27 -57.14 -27.04C-61.43 -31.81 -63.57 -38.22 -63.57 -46.28C-63.57 -54.43 -61.43 -60.86 -57.14 -65.59Z M109.01 -22.17C112.87 -29.14 114.79 -37.14 114.79 -46.15C114.79 -55.17 112.87 -63.14 109.01 -70.07C105.15 -77.01 99.63 -82.38 92.43 -86.19C85.24 -90.01 76.7 -91.91 66.82 -91.91L32.11 -91.91L32.11 0L66.82 0C76.62 0 85.13 -1.95 92.37 -5.85C99.61 -9.75 105.15 -15.19 109.01 -22.17ZM85.09 -26.78C80.28 -22.19 73.54 -19.89 64.87 -19.89L54.34 -19.89L54.34 -72.41L64.87 -72.41C73.54 -72.41 80.28 -70.12 85.09 -65.52C89.9 -60.93 92.3 -54.47 92.3 -46.15C92.3 -37.83 89.9 -31.37 85.09 -26.78Z M162.64 -74.23L197.61 -74.23L197.61 -91.91L140.41 -91.91L140.41 0L197.61 0L197.61 -17.81L162.64 -17.81L162.64 -38.22L193.71 -38.22L193.71 -54.99L162.64 -54.99Z"></path></g><g id="SvgjsG1023" class="text" transform="translate(197.0967571216871, 291.2770786700119) scale(1)" light-content="false" fill="#1f2937"><path d="M-125.62 -32.83C-128.23 -32.83 -130.95 -31.53 -133.77 -28.92C-136.6 -26.31 -138.91 -23.23 -140.7 -19.67C-142.48 -16.11 -143.38 -12.94 -143.38 -10.15C-143.38 -8.16 -142.37 -6.07 -140.37 -3.87C-138.36 -1.67 -136.45 -0.57 -134.63 -0.57C-132.81 -0.57 -130.78 -1.05 -128.54 -2.02C-126.3 -2.99 -124.39 -4.15 -122.81 -5.52C-121.22 -6.88 -120.43 -8.06 -120.43 -9.05C-120.43 -9.52 -120.53 -9.93 -120.72 -10.26C-120.91 -10.6 -121.1 -10.77 -121.29 -10.77C-121.48 -10.77 -122.25 -10.45 -123.6 -9.82C-124.95 -9.19 -126.66 -8.57 -128.74 -7.96C-130.82 -7.34 -132.87 -7.03 -134.89 -7.03C-135.66 -7.03 -136.18 -7.25 -136.48 -7.67C-136.77 -8.09 -136.92 -8.78 -136.92 -9.71C-136.92 -11.62 -136.22 -13.87 -134.83 -16.48C-133.44 -19.09 -131.76 -21.33 -129.8 -23.21C-127.83 -25.08 -126.12 -26.02 -124.65 -26.02C-124.24 -26.02 -123.75 -25.96 -123.18 -25.84C-122.61 -25.73 -122.24 -25.67 -122.06 -25.67C-121.68 -25.67 -121.49 -26.14 -121.49 -27.08C-121.49 -28.01 -121.97 -29.21 -122.94 -30.66C-123.91 -32.11 -124.8 -32.83 -125.62 -32.83Z M-106.94 -0.57C-106.65 -0.57 -106.34 -1.17 -106.02 -2.37C-105.84 -2.99 -105.61 -3.98 -105.31 -5.34C-105.02 -6.7 -104.42 -9.13 -103.51 -12.61C-101.69 -13.08 -99.1 -13.6 -95.73 -14.15C-96.96 -9.08 -97.58 -6.23 -97.58 -5.58C-97.58 -4.47 -97.09 -3.36 -96.11 -2.24C-95.12 -1.13 -94.28 -0.57 -93.58 -0.57C-93.28 -0.57 -92.98 -1.17 -92.65 -2.37C-92.48 -2.99 -92.31 -3.63 -92.15 -4.29C-91.99 -4.94 -91.75 -5.93 -91.42 -7.23C-91.1 -8.53 -90.41 -11.21 -89.36 -15.25C-87.19 -15.78 -86.11 -16.5 -86.11 -17.41C-86.11 -18.2 -86.84 -18.77 -88.3 -19.12C-87.16 -23.54 -86.59 -26.06 -86.59 -26.68C-86.59 -27.91 -87.15 -29.23 -88.28 -30.64C-89.41 -32.04 -90.33 -32.75 -91.03 -32.75C-91.88 -32.75 -92.3 -32.26 -92.3 -31.3C-92.3 -29.36 -93.01 -25.45 -94.41 -19.56C-96.9 -19.47 -99.41 -19.21 -101.93 -18.77C-100.87 -23.25 -100.35 -25.89 -100.35 -26.68C-100.35 -27.91 -100.91 -29.23 -102.04 -30.64C-103.17 -32.04 -104.08 -32.75 -104.79 -32.75C-105.64 -32.75 -106.06 -32.26 -106.06 -31.3C-106.06 -29.3 -106.98 -24.56 -108.83 -17.05C-110.24 -16.47 -110.94 -15.88 -110.94 -15.3C-110.94 -14.24 -110.59 -13.36 -109.88 -12.66C-110.76 -8.88 -111.2 -6.62 -111.2 -5.87C-111.2 -5.12 -110.65 -4.05 -109.53 -2.66C-108.42 -1.27 -107.55 -0.57 -106.94 -0.57Z M-55.47 -2.15C-55.47 -2.65 -55.87 -3.28 -56.66 -4.04C-57.04 -4.45 -57.43 -4.85 -57.82 -5.23C-58.22 -5.61 -58.72 -6.09 -59.34 -6.66C-59.95 -7.23 -60.69 -7.93 -61.54 -8.77C-62.39 -9.6 -63.04 -10.34 -63.51 -10.97C-63.98 -11.6 -64.22 -12.26 -64.22 -12.97C-64.22 -13.17 -63.73 -13.63 -62.74 -14.33C-61.76 -15.03 -60.69 -15.82 -59.54 -16.68C-58.38 -17.54 -57.31 -18.75 -56.33 -20.28C-55.35 -21.82 -54.85 -23.43 -54.85 -25.1C-54.85 -27.35 -55.85 -29.19 -57.84 -30.59C-59.84 -32 -62.32 -32.7 -65.29 -32.7C-68.27 -32.7 -70.89 -32.22 -73.16 -31.25C-75.43 -30.28 -76.57 -29.36 -76.57 -28.48C-76.57 -27.95 -76.35 -27.3 -75.91 -26.5C-75.47 -25.71 -74.97 -25.1 -74.41 -24.66C-74.71 -19.85 -75.85 -14.53 -77.84 -8.7C-78.52 -6.8 -78.85 -5.49 -78.85 -4.79C-78.85 -4.09 -78.38 -3.17 -77.42 -2.04C-76.47 -0.92 -75.66 -0.35 -74.99 -0.35C-74.57 -0.35 -74.15 -0.91 -73.71 -2.02C-73.48 -2.61 -73.26 -3.16 -73.07 -3.69C-72.88 -4.22 -72.61 -5.03 -72.26 -6.11C-71.91 -7.19 -71.64 -7.98 -71.47 -8.48C-71.29 -8.98 -70.97 -9.93 -70.5 -11.34C-69.45 -8.76 -67.67 -6.29 -65.16 -3.91C-62.66 -1.54 -60.26 -0.35 -57.98 -0.35C-56.3 -0.35 -55.47 -0.95 -55.47 -2.15ZM-61.62 -24.66C-61.62 -23.34 -62.22 -22.11 -63.43 -20.97C-64.04 -20.38 -64.59 -19.9 -65.07 -19.54C-65.56 -19.17 -66.24 -18.69 -67.12 -18.09C-68 -17.49 -68.6 -17.07 -68.92 -16.83C-68.45 -18.89 -68.22 -20.76 -68.22 -22.46C-68.22 -23.4 -68.58 -24.42 -69.32 -25.54C-67.73 -26.18 -66.37 -26.5 -65.23 -26.5C-62.82 -26.5 -61.62 -25.89 -61.62 -24.66Z M-31.03 -13.87C-32.29 -11.57 -33.77 -9.66 -35.47 -8.15C-37.17 -6.64 -38.64 -5.89 -39.87 -5.89C-40.39 -5.89 -40.83 -6.28 -41.18 -7.05C-41.54 -7.83 -41.71 -8.85 -41.71 -10.11C-41.71 -12.6 -41.1 -15.21 -39.89 -17.93C-38.67 -20.66 -37.31 -22.86 -35.8 -24.55C-34.29 -26.23 -33.07 -27.08 -32.13 -27.08C-31.19 -27.08 -30.46 -26.5 -29.93 -25.36C-29.41 -24.22 -29.14 -22.59 -29.14 -20.48C-29.14 -18.37 -29.77 -16.17 -31.03 -13.87ZM-39.82 -0.57C-36.95 -0.57 -34.17 -1.68 -31.49 -3.91C-28.81 -6.14 -26.71 -8.8 -25.19 -11.89C-23.66 -14.98 -22.9 -18.04 -22.9 -21.05C-22.9 -24.07 -23.81 -26.79 -25.63 -29.21C-27.44 -31.62 -29.77 -32.83 -32.61 -32.83C-34.17 -32.83 -35.87 -32.17 -37.71 -30.83C-39.56 -29.5 -41.25 -27.8 -42.79 -25.73C-44.33 -23.67 -45.61 -21.22 -46.63 -18.39C-47.66 -15.57 -48.17 -12.81 -48.17 -10.11C-48.17 -8 -47.32 -5.88 -45.62 -3.76C-43.92 -1.63 -41.99 -0.57 -39.82 -0.57Z M5.05 -32.97C4.62 -32.97 4.34 -32.67 4.22 -32.06C4.1 -31.46 3.85 -29.8 3.47 -27.08C2.51 -20.22 1.45 -15.09 0.31 -11.69C-0.57 -13.68 -1.76 -16.98 -3.25 -21.58C-4.75 -26.18 -5.78 -28.9 -6.35 -29.73C-6.92 -30.57 -7.6 -31.28 -8.37 -31.87C-9.15 -32.45 -9.79 -32.75 -10.29 -32.75C-10.87 -32.75 -11.21 -32.19 -11.3 -31.08C-11.44 -29.2 -12.36 -24.57 -14.04 -17.19C-15.73 -9.8 -16.57 -5.72 -16.57 -4.94C-16.57 -4.17 -16.1 -3.25 -15.16 -2.18C-14.23 -1.11 -13.46 -0.57 -12.88 -0.57C-12.47 -0.57 -12.03 -1.29 -11.56 -2.73C-11.3 -3.49 -11.05 -4.25 -10.83 -5.01C-10.61 -5.77 -10.36 -6.81 -10.07 -8.11C-9.77 -9.41 -9.52 -10.53 -9.32 -11.45C-9.11 -12.37 -8.84 -13.64 -8.51 -15.25C-8.17 -16.86 -7.9 -18.11 -7.69 -18.99C-6.31 -15.85 -4.85 -11.9 -3.3 -7.12C-2.62 -5.04 -2.17 -3.67 -1.93 -3.01C-1.7 -2.35 -1.23 -1.78 -0.53 -1.3C0.18 -0.81 0.75 -0.57 1.19 -0.57C2.27 -0.57 3.49 -2.65 4.83 -6.81C6.18 -10.97 7.29 -15.33 8.15 -19.89C9.02 -24.45 9.45 -27.65 9.45 -29.49C9.45 -30.05 8.93 -30.77 7.89 -31.65C6.85 -32.53 5.9 -32.97 5.05 -32.97Z M17.85 -2.4C18.84 -1.18 19.63 -0.57 20.22 -0.57C20.39 -0.57 20.57 -0.67 20.75 -0.88C21.22 -1.44 21.86 -3.59 22.68 -7.34C22.8 -7.96 22.96 -8.8 23.16 -9.87C23.37 -10.94 23.61 -12.15 23.89 -13.52C24.17 -14.88 24.71 -17.28 25.52 -20.72C26.32 -24.17 26.72 -26.15 26.72 -26.68C26.72 -27.91 26.14 -29.23 24.97 -30.64C23.79 -32.04 22.86 -32.75 22.15 -32.75C21.3 -32.75 20.85 -32.26 20.79 -31.3C20.73 -29.57 19.98 -24.9 18.53 -17.3C17.08 -9.69 16.35 -5.61 16.35 -5.05C16.35 -4.5 16.85 -3.61 17.85 -2.4Z M51.43 -32.83C48.82 -32.83 46.1 -31.53 43.27 -28.92C40.44 -26.31 38.14 -23.23 36.35 -19.67C34.56 -16.11 33.67 -12.94 33.67 -10.15C33.67 -8.16 34.67 -6.07 36.68 -3.87C38.69 -1.67 40.6 -0.57 42.42 -0.57C44.23 -0.57 46.26 -1.05 48.5 -2.02C50.74 -2.99 52.66 -4.15 54.24 -5.52C55.82 -6.88 56.61 -8.06 56.61 -9.05C56.61 -9.52 56.52 -9.93 56.33 -10.26C56.14 -10.6 55.95 -10.77 55.76 -10.77C55.56 -10.77 54.8 -10.45 53.45 -9.82C52.1 -9.19 50.39 -8.57 48.31 -7.96C46.22 -7.34 44.17 -7.03 42.15 -7.03C41.39 -7.03 40.86 -7.25 40.57 -7.67C40.28 -8.09 40.13 -8.78 40.13 -9.71C40.13 -11.62 40.83 -13.87 42.22 -16.48C43.61 -19.09 45.29 -21.33 47.25 -23.21C49.21 -25.08 50.93 -26.02 52.39 -26.02C52.8 -26.02 53.29 -25.96 53.87 -25.84C54.44 -25.73 54.81 -25.67 54.99 -25.67C55.37 -25.67 55.56 -26.14 55.56 -27.08C55.56 -28.01 55.07 -29.21 54.11 -30.66C53.14 -32.11 52.25 -32.83 51.43 -32.83Z M73.23 -33.4C72.38 -33.4 71.95 -32.92 71.95 -31.95C71.95 -29.87 70.87 -25.31 68.7 -18.26C66.53 -11.22 65.45 -7.05 65.45 -5.76C65.45 -4.47 66.04 -3.29 67.23 -2.22C68.41 -1.15 69.73 -0.62 71.16 -0.62C74.85 -0.62 78.1 -1.18 80.9 -2.31C83.7 -3.44 85.09 -4.92 85.09 -6.77C85.09 -7.71 84.73 -8.18 84 -8.18C83.79 -8.18 83.12 -8.03 82 -7.74C80.87 -7.44 79.4 -7.14 77.6 -6.83C75.8 -6.53 74.38 -6.37 73.36 -6.37C72.33 -6.37 71.79 -6.39 71.73 -6.42C71.67 -6.45 71.64 -6.53 71.64 -6.68C71.64 -7.79 72.14 -9.77 73.14 -12.61C76.04 -20.7 77.49 -26.15 77.49 -28.97C77.49 -29.99 76.96 -30.99 75.91 -31.95C74.85 -32.92 73.96 -33.4 73.23 -33.4Z M102.94 -19.03L102.68 -19.03C103.38 -21.64 103.73 -23.94 103.73 -25.93C105.96 -26.55 108.49 -27.02 111.34 -27.34C113.18 -27.54 114.63 -27.76 115.69 -28C117.24 -28.35 118.02 -28.98 118.02 -29.89C118.02 -31.3 114.85 -32 108.52 -32C104.71 -32 102.08 -31.89 100.61 -31.67C99.15 -31.45 98.25 -30.93 97.93 -30.11C97.81 -29.87 97.75 -29.55 97.75 -29.14C97.75 -28.88 97.77 -28.7 97.8 -28.61C97.71 -25.83 96.91 -21.7 95.4 -16.22C93.89 -10.74 93.14 -7.32 93.14 -5.96C93.14 -4.59 93.68 -3.41 94.76 -2.4C95.85 -1.38 97.06 -0.88 98.41 -0.88C100.67 -0.88 102.97 -1.17 105.31 -1.76C107.66 -2.34 109.61 -3.14 111.16 -4.13C112.71 -5.13 113.49 -6.15 113.49 -7.21C113.49 -8 113.21 -8.4 112.65 -8.4C112.48 -8.4 111.79 -8.23 110.59 -7.91C107.04 -7.03 103.6 -6.59 100.26 -6.59C99.76 -6.59 99.51 -6.84 99.51 -7.34C99.51 -8.28 100.08 -10.52 101.23 -14.07C103.98 -14.18 106.57 -14.62 109.01 -15.38C111.44 -16.15 112.65 -17.17 112.65 -18.46C112.65 -18.75 112.53 -19 112.28 -19.21C112.03 -19.41 111.69 -19.52 111.27 -19.52C110.84 -19.52 109.74 -19.43 107.95 -19.27C106.16 -19.11 104.49 -19.03 102.94 -19.03Z M142.59 -9.67C142.59 -11.11 142.07 -12.59 141.05 -14.13C140.02 -15.67 138.9 -16.94 137.69 -17.96C136.47 -18.97 135.35 -19.93 134.32 -20.86C133.3 -21.78 132.78 -22.42 132.78 -22.77C132.78 -23.53 134.28 -24.47 137.27 -25.58C138.56 -26.08 139.82 -26.46 141.07 -26.72C142.32 -26.99 143.27 -27.24 143.93 -27.49C144.59 -27.74 144.92 -28.07 144.92 -28.48C144.92 -29.51 144.55 -30.5 143.82 -31.45C143.08 -32.4 142.16 -32.88 141.05 -32.88C139.14 -32.88 136.94 -32.31 134.43 -31.19C131.93 -30.06 129.88 -28.72 128.3 -27.16C127.8 -26.75 127.39 -26.01 127.05 -24.92C126.71 -23.84 126.54 -22.83 126.54 -21.91C126.54 -20.99 127.37 -19.68 129.03 -18C130.68 -16.31 132.34 -14.68 133.99 -13.1C135.65 -11.52 136.48 -10.39 136.48 -9.71C136.48 -9.04 135.71 -8.2 134.19 -7.21C132.67 -6.21 131.3 -5.71 130.1 -5.71C128.9 -5.71 127.83 -6.07 126.87 -6.77C125.92 -7.47 125.06 -8.18 124.3 -8.88C123.54 -9.58 122.81 -9.93 122.1 -9.93C121.2 -9.93 120.74 -9.13 120.74 -7.52C120.74 -5.9 121.67 -4.34 123.53 -2.84C125.39 -1.33 127.85 -0.57 130.89 -0.57C133.94 -0.57 136.65 -1.47 139.03 -3.25C141.4 -5.04 142.59 -7.18 142.59 -9.67Z"></path></g></g></g></svg>